<?xml version="1.0" standalone="yes"?>
<svg xmlns="http://www.w3.org/2000/svg" width="300" height="263">
<path style="fill:#010101; stroke:none;" d="M0 0L0 263L300 263L300 0L0 0z"/>
<path style="fill:#ffffff; stroke:none;" d="M27 126C12.0787 126.318 2.48762 142.798 3.04012 157C3.44886 167.507 7.44107 173.49 10.3519 183C11.8225 187.805 11.0494 193.216 12.9938 197.91C17.9212 209.807 32.069 216.999 44 217C43.9358 214.007 44.0539 212.654 41 212L45 209L45 213L58 213C66.1313 230.393 93.4977 243.284 111 248.424C158.014 262.234 209.1 250.127 242.05 213C251.267 202.615 261.521 187.95 264 174L268 174L268 169C256.74 168.017 242.927 162.903 234 156C244.07 160.132 253.875 165.907 265 166C263.748 158.264 252.522 155.53 246 153L246 152L269 157C267.612 148.49 246.609 142.723 239 140L239 139L273 148C271.652 139.847 253.268 134.988 246 133L246 132L281 137L281 133L243 122L243 121L280 124L280 120L249 114L249 113C257.201 114.036 270.621 110.586 277.815 113.603C289.685 118.583 282.103 135.582 280.615 144C279.976 147.618 280.402 151.605 278.86 155C276.7 159.757 273.397 162.537 273 168C288.671 166.948 295.315 142.239 295.96 129C296.527 117.348 290.83 109.718 287.789 99C284.333 86.822 285.667 74.5471 278.91 63.0154C276.069 58.1659 270.463 56.0143 266 52.9715C250.019 42.0753 241.212 38.3704 223 47C225.052 39.4789 229.299 29.8791 225.995 22.0903C218.83 5.20081 183.21 0.469879 168 5.3588C163.688 6.74493 158.905 10.4563 154.424 10.7539C150.663 11.0036 146.74 8.63339 143 8.18442C134.678 7.18532 125.149 7.57538 117 9.50308C107.718 11.6988 102.797 17.2123 95 21.929C72.3945 35.6039 53.8568 50.1228 41.1674 74C34.7948 85.9911 13.9375 101.861 19.7423 116.999C21.1364 120.635 24.5257 123.128 27 126z"/>
<path style="fill:#010101; stroke:none;" d="M163 56L164 56L168 23L173 23L172 55L173 55L183 23L187 23L181 57L182 57L195 27L200 27L191 57L192 57C195.663 51.6322 199.133 45.0685 206 44L193 72C197.446 68.9049 205.59 63.9869 207.802 58.9105C209.882 54.1381 208.932 46.3543 210.239 41C211.155 37.2505 214.691 32 212.303 28.3009C204.548 16.286 170.901 11.7987 162.028 24.6343C157.252 31.5427 162.836 48.0605 163 56M121 23L135 57L136 57L131 22L121 23M136 22L145 57L144 32L142.972 23.7423L136 22M110 35C116.34 36.9963 116.307 44.5532 118.465 50C120.664 55.5519 124.424 60.2828 128 65L129 65C122.976 52.0355 118.121 39.5823 118 25C113.028 26.7311 110.924 29.901 110 35M148 25L154 55L155 55L156 26L148 25M94 38C77.8173 48.1508 61.7146 62.0968 54 80C65.7222 76.4278 71.9745 64.5113 86 63.1775C99.1785 61.9242 107.961 76.287 108.907 88C110.828 111.796 96.4083 136.213 116.09 155.91C120.485 160.308 125.847 164.534 131 168C136.422 156.558 143.396 142.921 143.741 130C144.465 102.869 116.222 89.0414 103.769 69C97.4718 58.867 98.3102 48.2488 94 38M202 77C212.02 70.9462 223.961 62.6246 236 62C233.907 69.116 224.17 72.7163 218 76L218 77L256 65C253.635 72.9886 240.079 76.7983 233 80L233 81L265 75C263.607 83.7383 245.673 86.8668 238 88L238 89L271 86C268.086 95.3113 250.922 94.4947 243 97L243 98L274 97C271.426 105.554 256.468 104.938 249 105L249 106L277 108C275.576 97.4245 273.733 89.6216 269.856 80C268.612 76.9117 269.27 73.2838 267.142 70.5293C263.509 65.8271 247.905 55.1733 242 54.7477C236.891 54.3794 231.505 58.7423 227 60.6628C215.697 65.4813 208.5 64.4036 202 77M180 58L181 59L180 58M190 58L191 59L190 58M83 78L86 86L87 86L88 78L83 78M75 81L81 95L82 95L78 81L75 81M230 81L231 82L230 81M69 86L68 89L72 94L73 94L69 86M87.3333 87.6667L87.6667 88.3333L87.3333 87.6667M88.3333 90.6667L88.6667 91.3333L88.3333 90.6667M64 91L61 92L66 97L64 91M52 93L58 99L56 93L52 93M95 93L96 94L95 93M46 95L41 98L41 99L53 106L46 95M73 95L74 96L73 95M38 101L35 106L48 112L38 101M32 109L31 112L44 119L32 109M45 119L46 120L45 119M241.667 120.333L242.333 120.667L241.667 120.333M44 127L51 131L44 127M244 131L245 132L244 131M17 149L38 144L38 143L26 144L26 139L48 137C36.8749 129.401 21.6031 139.21 17 149M91.3333 135.667L91.6667 136.333L91.3333 135.667M235 137L236 138L235 137M237 138L238 139L237 138M144 233C121.489 228.445 129.466 198.514 124.411 184.004C122.164 177.552 113.045 170.965 107 168.367C90.974 161.479 81.7961 181.136 75.6921 192C73.6273 195.675 67.5981 201.593 69.7477 206C75.879 218.571 96.628 228.675 109 233.6C162.014 254.7 229.604 229.293 250 174C239.911 170.578 229.461 169.299 220 163.958C207.217 156.741 197.483 145.651 182 144.177C152.152 141.337 136.42 184.181 138.09 208C138.701 216.731 143.556 224.444 144 233M223 149L225 151L223 149M16 151L14 158L29 153L29 152L16 151M226 151L226 152L234 156L234 155L226 151M244 151L245 152L244 151M27 160L28 161L27 160M24.6667 161.333L25.3333 161.667L24.6667 161.333M16 166L23 163C20.0757 161.799 16.7107 162.684 16 166z"/>
<path style="fill:#494949; stroke:none;" d="M245 162L246 163L245 162z"/>
<path style="fill:#010101; stroke:none;" d="M18 173L26 170L18 173M20 181L26 178C23.1475 176.829 20.6629 177.891 20 181z"/>
<path style="fill:#ffffff; stroke:none;" d="M225 193C217.736 187.857 213.881 196.493 206 197L203 200L203 206C198.556 206.709 197.335 208.606 197 213L159 222L163 237C170.25 236.764 171.707 232.713 172 226L173 226L175 234L189 232L189 229C195.091 228.8 196.015 225.802 199 221C204.229 228.217 218.011 215.255 219 209C225.071 208.538 229.533 204.081 230 198C233.814 197.339 234.57 195.741 235 192C238.883 190.903 239.725 188.902 240 185C231.359 183.019 217.308 179 225 193z"/>
<path style="fill:#010101; stroke:none;" d="M21 186L21 190L27 186L21 186M36 186L23 194L27 198L36 186M226 194L227 195L226 194M38 195L31 203L38 195M42 201L34 208L38 210L42 201M47 205L48 206L47 205M203 206L203 207L207 209L203 206M46 207L45 209L46 207M208 209L210 211L208 209M197 213L198 214L197 213M185 222L187 225L185 222z"/>
</svg>
