<?xml version="1.0" standalone="no"?>
<!DOCTYPE svg PUBLIC "-//W3C//DTD SVG 20010904//EN"
 "http://www.w3.org/TR/2001/REC-SVG-20010904/DTD/svg10.dtd">
<svg version="1.0" xmlns="http://www.w3.org/2000/svg"
 width="500.000000pt" height="500.000000pt" viewBox="0 0 500.000000 500.000000"
 preserveAspectRatio="xMidYMid meet">

<g transform="translate(0.000000,500.000000) scale(0.100000,-0.100000)"
fill="#000000" stroke="none">
<path d="M1340 2255 l0 -1035 1160 0 1160 0 0 1035 0 1035 -1160 0 -1160 0 0
-1035z m864 788 c3 -16 10 -59 16 -98 6 -38 36 -221 66 -405 30 -184 63 -389
74 -455 73 -455 101 -623 105 -643 l6 -23 -133 3 -133 3 -11 70 c-6 39 -17
109 -24 158 l-12 87 -144 0 c-141 0 -144 0 -148 -22 -7 -31 -24 -143 -31 -198
-3 -25 -8 -57 -11 -72 l-6 -28 -119 0 c-137 0 -128 -11 -105 116 8 44 26 153
41 244 14 91 48 300 75 465 63 381 117 716 125 778 l7 47 178 0 178 0 6 -27z
m958 -1 c114 -46 190 -153 208 -296 12 -94 12 -910 0 -1004 -18 -141 -88 -244
-198 -295 -44 -21 -65 -22 -314 -25 l-268 -3 0 826 0 826 258 -3 c241 -3 261
-5 314 -26z"/>
<path d="M2007 2735 c-4 -16 -18 -111 -32 -210 -13 -99 -35 -263 -49 -365 -14
-102 -26 -186 -26 -187 0 -2 52 -3 115 -3 l115 0 -6 28 c-3 15 -29 194 -58
397 -36 250 -55 360 -59 340z"/>
<path d="M2850 2245 l0 -585 93 0 c102 0 126 9 152 60 13 25 15 105 15 527 0
475 -1 499 -19 527 -30 46 -57 55 -153 56 l-88 0 0 -585z"/>
</g>
</svg>
