<?xml version="1.0" standalone="no"?>
<!DOCTYPE svg PUBLIC "-//W3C//DTD SVG 20010904//EN"
 "http://www.w3.org/TR/2001/REC-SVG-20010904/DTD/svg10.dtd">
<svg version="1.0" xmlns="http://www.w3.org/2000/svg"
 width="512.000000pt" height="512.000000pt" viewBox="0 0 512.000000 512.000000"
 preserveAspectRatio="xMidYMid meet">

<g transform="translate(0.000000,512.000000) scale(0.100000,-0.100000)"
fill="#000000" stroke="none">
<path d="M2372 5109 c-1119 -80 -2061 -894 -2306 -1992 -80 -359 -80 -755 0
-1117 213 -957 978 -1721 1934 -1934 361 -80 760 -80 1117 0 962 215 1724 976
1937 1934 80 362 80 758 0 1120 -205 921 -921 1666 -1835 1909 -155 41 -318
68 -490 80 -159 12 -192 12 -357 0z m498 -145 c749 -98 1396 -525 1781 -1174
165 -279 269 -584 320 -940 21 -142 16 -471 -10 -635 -81 -533 -312 -994 -686
-1370 -646 -651 -1620 -879 -2490 -584 -842 286 -1467 1013 -1614 1879 -114
671 45 1330 453 1880 86 115 268 306 391 408 506 423 1194 622 1855 536z"/>
<path d="M2519 4281 l-24 -19 -3 -821 -2 -821 -820 0 -819 0 -15 -22 c-21 -30
-20 -51 3 -79 l19 -24 816 -3 816 -2 2 -815 c3 -751 4 -816 20 -831 9 -10 31
-17 48 -17 17 0 39 7 48 17 16 15 17 80 20 831 l2 815 815 2 c751 3 816 4 831
20 20 20 23 70 4 92 -11 14 -103 16 -831 16 l-819 0 -2 821 -3 821 -24 19
c-13 10 -31 19 -41 19 -10 0 -28 -9 -41 -19z"/>
</g>
</svg>
